<?xml version="1.0" encoding="UTF-8" standalone="no"?>
<!-- Created with Inkscape (http://www.inkscape.org/) -->

<svg
   width="196.86084mm"
   height="124.09839mm"
   viewBox="0 0 196.86084 124.09839"
   version="1.1"
   id="svg1"
   xml:space="preserve"
   xmlns:xlink="http://www.w3.org/1999/xlink"
   xmlns="http://www.w3.org/2000/svg"
   xmlns:svg="http://www.w3.org/2000/svg"><defs
     id="defs1" /><g
     id="layer1"
     transform="translate(-7.937498,-84.393289)"><image
       width="420.6875"
       height="173.56667"
       preserveAspectRatio="none"
       xlink:href="../../../images/image1.png"
       id="image1"
       x="-105.30417"
       y="61.647919"
       style="display:none" /><path
       id="path1"
       style="fill:#ffffff"
       d="m 118.54987,84.393806 c -0.0533,0.0031 -0.0702,0.0075 -0.12971,0.01447 l -0.12867,0.01499 c -0.11857,0.0159 -5.71218,0.800429 -6.40892,0.898137 -0.59105,0.08289 -0.0683,0.01658 -0.90072,0.135909 -1.70618,0.24458 -7.42465,1.018208 -11.354858,2.027783 -16.345105,4.198656 -30.126544,12.360987 -43.687773,25.883175 -5.182243,5.16734 -8.295308,8.73912 -12.458154,14.29319 -14.999998,20.01301 -24.353097,48.69003 -33.9726035,75.53853 -0.1623179,0.45304 -0.446336,1.52167 -0.5782592,1.89963 -0.2134114,0.66637 -0.2889874,1.1427 -0.5405355,1.85931 l -0.4521688,1.53221 v 5.2e-4 h 32.764408 l 0.370004,-1.81591 0.181384,-0.8909 h 0.001 c 0.701069,-3.1547 2.756262,-10.59706 4.078821,-14.6079 l 1.662948,-5.04258 20.819918,-0.0677 20.819401,-0.0677 v 10.84947 10.72183 0.12765 l 0.0021,0.79374 h 17.730698 14.01517 v -2.55953 h 0.002 v -28.79359 c 0,-20.93666 0.0863,-30.55937 0.27441,-30.55937 0.15101,0 1.31726,0.40289 2.59157,0.89502 7.03494,2.7169 13.21667,6.98481 19.64169,13.56094 4.88599,5.00091 8.73289,10.0158 13.27413,17.30489 4.78269,7.67662 10.00862,18.3448 13.57126,27.70425 l 0.62942,1.65365 h -0.001 l 0.30282,0.79374 h 34.12867 v -0.0181 l -1.61385,-4.41006 c -2.2e-4,-5.1e-4 -3.1e-4,-5.2e-4 -5.2e-4,-0.001 -0.22301,-0.54249 -0.4775,-1.16851 -0.72657,-1.78853 -12.25961,-30.51751 -30.99194,-56.19908 -50.23828,-68.87538 -1.91845,-1.26355 -3.46628,-2.3747 -3.43958,-2.4691 0.0267,-0.0944 1.17967,-1.04301 2.56211,-2.10789 3.24108,-2.49653 8.94115,-8.06026 11.93829,-11.6525 3.20943,-3.84669 7.50971,-9.90981 10.02782,-14.13919 2.19196,-3.681606 5.88864,-10.926059 7.41298,-14.526769 0.2568,-0.606601 0.32881,-0.753178 0.50798,-1.162203 l -5.2e-4,-10e-4 0.0289,-0.06356 c 0.14854,-0.338106 0.41916,-0.975479 0.43873,-1.003556 0.007,-0.01048 0.0174,-0.01937 0.03,-0.02687 l 0.82093,-1.796393 c -2.29536,-0.04219 -2.98739,-0.06002 -5.05297,0.0014 -1.80371,0.05362 -13.33906,0.04216 -30.30487,-0.0054 l -0.42685,1.152901 c -0.0871,0.250655 -0.23817,0.659171 -0.4253,1.149801 l -0.60461,1.634526 -0.0341,5.16e-4 c -6.10205,15.268607 -14.52592,26.086477 -23.196,29.763047 -0.94588,0.40111 -2.22581,0.88487 -2.84427,1.07487 l -1.12448,0.3452 0.0114,-17.1881 V 88.704654 h -0.01 l 0.01,-1.401982 v -2.109949 c -0.003,-0.231836 0.004,-0.545558 0.005,-0.798917 z M 88.39822,121.17916 c 0.142376,0 0.212709,9.17952 0.172599,22.55573 l -0.0677,22.55573 -16.885791,0.0682 -16.885274,0.0682 0.174666,-0.59738 c 0.09631,-0.3285 1.589325,-3.45488 3.317627,-6.94738 6.659721,-13.45776 14.244005,-24.01573 22.971724,-31.97789 2.528814,-2.307 6.828974,-5.72523 7.202145,-5.72523 z" /></g></svg>
